PathFileType	4	(X/Y/Z)	27_1_29_p1_0-316.trc
DataRate	CameraRate	NumFrames	NumMarkers	Units	OrigDataRate	OrigDataStartFrame	OrigNumFrames
59.0	59.0	6	27	m	59.0	158	317
Frame#	Time	RHip			RKnee			RAnkle			RBigToe			RSmallToe			RHeel			LHip			LKnee			LAnkle			LBigToe			LSmallToe			LHeel			Neck			Head			Nose			RShoulder			RElbow			RWrist			RThumb			RIndex			RPinky			LShoulder			LElbow			LWrist			LThumb			LIndex			LPinky			
		X1	Y1	Z1	X2	Y2	Z2	X3	Y3	Z3	X4	Y4	Z4	X5	Y5	Z5	X6	Y6	Z6	X7	Y7	Z7	X8	Y8	Z8	X9	Y9	Z9	X10	Y10	Z10	X11	Y11	Z11	X12	Y12	Z12	X13	Y13	Z13	X14	Y14	Z14	X15	Y15	Z15	X16	Y16	Z16	X17	Y17	Z17	X18	Y18	Z18	X19	Y19	Z19	X20	Y20	Z20	X21	Y21	Z21	X22	Y22	Z22	X23	Y23	Z23	X24	Y24	Z24	X25	Y25	Z25	X26	Y26	Z26	X27	Y27	Z27	
158	2.6779661016949152	0.09653454161668956	0.6545085388830912	1.0321318549821459	0.11436259141714619	0.6407392138562473	1.4104173743916124	0.13558470438752854	0.79709035344276	1.8399501496419022	0.13142534162115882	0.5649814396710499	1.8240852751068724	0.1812449269933089	0.6026693980891823	1.8275359150539978	0.14451768446843583	0.8679155791787986	1.8923513388457633	-0.08638449381235219	0.6698410985947957	1.0392367308565922	-0.062104761007529874	0.7247128856010724	1.4480254542530864	-0.041312698017166895	0.794361745498842	1.835343927662057	-0.027826064241207933	0.5759153942889886	1.8077519208922643	-0.07010518256870217	0.6054168557799626	1.8157125353916028	-0.0196851890223023	0.8662665261419913	1.9067281136083136	0.05733849875446295	0.5572768783698605	0.5153879855323032	0.1301062074494463	0.4832836874117284	0.2796798687274142	0.1410883797272722	0.4174287183085465	0.423317073449264	0.149026940068121	0.6507545257359799	0.5741410866774342	0.19149749461678428	0.7974204276403157	0.770279048850648	0.33794652686803045	0.790674619441942	0.7114573598123819	0.4362161327655861	0.7614590281389846	0.7067670873274068	0.47845870676889724	0.8025766063712297	0.7149197466514344	0.443103586674616	0.7773183901020903	0.7387696876071768	-0.06667931260218667	0.5478859569316835	0.5803083885750085	-0.20475700493535218	0.6361894019882268	0.7633603201963978	-0.20587718513078293	0.46677362725846266	0.6611699799641997	-0.20240856119903783	0.4343812432073306	0.556617415539606	-0.20654100656428628	0.41407996901984806	0.5585587978030285	-0.19862560652810068	0.38063500828372093	0.5992916901533681
159	2.694915254237288	0.10100886015692882	0.6654750993421696	1.034786088776999	0.11469747102708601	0.6414026251205874	1.4105824329946544	0.13595719019529195	0.7957438115378848	1.8441563263277567	0.13118572270784984	0.5646220691528797	1.8243844087187044	0.17647578965508287	0.6008166948913025	1.8315709788123664	0.14944594689888602	0.8842572408248653	1.901048117104819	-0.0820943903619536	0.6826227169122229	1.0425565922563242	-0.05804961480549866	0.7100363748413413	1.4341736745122973	-0.04135362491512139	0.7945437047591108	1.8354129012012554	-0.027973815002559285	0.5763269083481506	1.8083378047979035	-0.07051190163215186	0.6055190098492355	1.816427168239574	-0.019068425288536535	0.8584761483794411	1.8981674446172985	0.05718819289027101	0.5571197144572383	0.515254624307458	0.12603842832902118	0.4729248951916849	0.27969965273119557	0.14498222163109187	0.42671434855787466	0.42015695966408284	0.14909299533949527	0.6502636085961534	0.5740173353382045	0.18604062119091433	0.7965973995681377	0.7631991846897227	0.33420692853748923	0.7733569835529912	0.7005312311315816	0.44317154941794307	0.7777532598004698	0.699103794489269	0.4869127567900935	0.8303913031235294	0.7100513780063716	0.45630364985252214	0.8053346975710615	0.7379623241707695	-0.07077517291620782	0.5476446087237347	0.5754000221106325	-0.2037814110322316	0.6402622706633927	0.7828638093153386	-0.20712879664780529	0.4598526156828335	0.6762183461539246	-0.2013528714574018	0.44024076961936615	0.5728996259685636	-0.22156165280054677	0.41538504471438553	0.5782069953776934	-0.21107587120502685	0.3679489524515453	0.6010678308723484
160	2.711864406779661	0.10570437090523359	0.6790026025492472	1.0420969733532592	0.11433278178571345	0.642532391943609	1.4150617484396206	0.13589369970855103	0.7955970213829668	1.844171843798974	0.1311729077112514	0.5647782166270392	1.8247646836268148	0.1812698463349947	0.6009999954365818	1.8316550600767112	0.14942151828955466	0.8829712195187757	1.906401802838865	-0.0821650200244091	0.6825421667134746	1.0501285947628283	-0.05796033614667136	0.7077667339738777	1.4461350850024337	-0.04113494323090972	0.7949095444347742	1.8354266795910972	-0.033035659093293285	0.5755039776004026	1.808263921431954	-0.07071974229735783	0.605570730203683	1.8166916997732023	-0.019124428418327243	0.8560690337560377	1.9016255162998867	0.05718088252147083	0.5574782290977427	0.5151104057400547	0.12094037331081249	0.4708664669725493	0.27703320054848113	0.1401600711787882	0.4165860647974523	0.41638240651270275	0.15162076566829258	0.6768074888118286	0.5796759560309456	0.18588362199460337	0.7971343011635847	0.763467544128071	0.3337830490744076	0.7735922291241989	0.6973854496726929	0.43892276867072155	0.768622731614019	0.6808905384517541	0.4662869761193107	0.8099593986107789	0.694377711915144	0.4262295608006587	0.7634136735563403	0.712543469527397	-0.0756085360114637	0.548175855733854	0.5790163545454741	-0.20086310327563375	0.652781004606442	0.7850526468842172	-0.21114802271870986	0.4584920668832853	0.6764915311681261	-0.20633643116117553	0.41804113209134774	0.5874424802609944	-0.239268954165204	0.36623709969317997	0.5841539337861898	-0.22764384658977324	0.41496547114750376	0.6166832143820752
161	2.7288135593220337	0.11475484332564047	0.6943089226537954	1.0412380431352561	0.11295231330373855	0.64093203414588	1.4100905891237443	0.1357282293196396	0.7950967920546839	1.8440239201197688	0.13115516132068966	0.5647183846777362	1.8248596789362057	0.1813095309863384	0.6014248722154252	1.8319130100746035	0.14142211282709638	0.866668117017723	1.899022289955143	-0.07855444984612157	0.6684227346105737	1.0464058372306895	-0.05097191423178163	0.7040887317222247	1.4395441872754833	-0.041200193174583365	0.794918970179788	1.8355584206816375	-0.03396796626977277	0.5768678993293768	1.8134236195665157	-0.07470277668095164	0.6209428379301188	1.8251503857735	-0.028157645425110386	0.8694454175388695	1.9081465345845163	0.056283249425177886	0.5583483424757099	0.5159864417014658	0.11890406984571358	0.485234799760901	0.2726026373131626	0.1356764706054854	0.4061818134192683	0.41602200760352953	0.15091953312947376	0.6788948714784351	0.5787070385808802	0.18347578695080996	0.8113570586484762	0.7682471845389899	0.32655917671237245	0.7766728633904282	0.7015224464605081	0.44321203094435657	0.7957073346478231	0.6804066059826811	0.46272372866301603	0.8127523715173468	0.6851457904394975	0.4293313236710292	0.7795652133338233	0.7055339763069985	-0.07955662520041636	0.5344602576517259	0.5774500170489761	-0.19545373349540773	0.6555617453467192	0.7929240468176356	-0.21538549538913257	0.4568243788464173	0.6765386068833354	-0.2505070970328845	0.37933825933242143	0.5893322866867018	-0.2533497076822651	0.3551131306308905	0.5873594963521989	-0.24548501003418424	0.3550883997697116	0.6088468764939594
162	2.7457627118644066	0.12056822042041365	0.7066595957427918	1.0395176862620585	0.11810672376077934	0.6540181307399827	1.4150415915751593	0.13566082828333292	0.7955852853860734	1.8444817643683717	0.1308070711780882	0.5639305234288888	1.8250101683977575	0.1809021008177177	0.6011896956250349	1.832151542355915	0.14677202913273754	0.8820990825610177	1.903796570452347	-0.06995986866246288	0.6827231794479687	1.042192206655774	-0.038560453854654085	0.6736409406448278	1.4240094775087404	-0.04116874188585	0.7953926055830001	1.835607366860911	-0.03738442248849728	0.5917598627002068	1.8217348381928011	-0.07919383570981885	0.6363528912663937	1.833648519658239	-0.028317490049959163	0.8675939922622561	1.9065990906478176	0.05222097558978689	0.5577065111964061	0.5167410550075865	0.1061475825983636	0.45272761204231643	0.27076620807536067	0.13132082069788403	0.396022843980501	0.4155555009592401	0.14894308314293767	0.6499213399587269	0.5732230330627119	0.1851521999212769	0.7978217302873364	0.7586312810598095	0.32576128255912346	0.7764115253247161	0.6946095358338001	0.4273735326114154	0.7545782435033412	0.6754448212551963	0.4447159145121569	0.784571340304352	0.6734699669442324	0.41928466019507526	0.7623491740619688	0.6884268366644283	-0.08310746985856021	0.548047089801426	0.5828869671099439	-0.19176489252722323	0.6674417882479193	0.7945514201199405	-0.22344348591750393	0.4446665054247784	0.6817428723434141	-0.2577342170030951	0.3530094589908536	0.5988323509529587	-0.2609466522555283	0.34158224057039316	0.6007300850826279	-0.2542981291942046	0.33241861543664813	0.637453146011419
163	2.76271186440678	0.12311357113538163	0.6924036493681939	1.0404411823859587	0.11870260436839894	0.6567034610552684	1.4244621489458007	0.14108053458733094	0.8102686261929886	1.8514051736597918	0.13082175789770323	0.564159632749904	1.8251041527873157	0.17918274080551025	0.6161717929813785	1.8362571284157192	0.14806689435370568	0.8865379324423502	1.9062437549108144	-0.0663273247018193	0.6687226341990578	1.042394291260555	-0.03552287415522323	0.6586188133761786	1.422177181834563	-0.040982210659162244	0.795785934975556	1.8355981215077006	-0.03330049549388834	0.6053159572225424	1.828899066073066	-0.08350203065429047	0.6516694719299434	1.8419146581954	-0.0214910155258268	0.8712666546150917	1.9025787023754748	0.05238788574359297	0.5573248245825321	0.516697391700748	0.10116939037708829	0.4417216736943067	0.27148215746961807	0.13125637171763696	0.39621653190709943	0.41560579844083084	0.14614660738337235	0.663229384794629	0.5803746467956497	0.18480293223617153	0.7978245825180427	0.7614276439499309	0.3255659908832084	0.7755681480164294	0.6942501795129112	0.42555457342409475	0.7682429368221975	0.6685433571792442	0.4429232524691558	0.7819219095906824	0.6692853600657717	0.40453582893918033	0.7412413845489089	0.6778500703236793	-0.07547699225313788	0.5357557095138411	0.5837892032739204	-0.18770154706970613	0.6552749150233462	0.803865349813016	-0.2273909091911538	0.44427835396986265	0.6920585234229167	-0.25748062074141564	0.3299963347737102	0.6284123998853481	-0.2617502579215436	0.3282792020738576	0.6288783607712688	-0.25974964579029913	0.3443896391407551	0.6625135890538487
